<svg width="143" height="116" viewBox="0 0 143 116" fill="none" xmlns="http://www.w3.org/2000/svg">
<path d="M15.486 91H8.01V28.878H30.616C36.3713 28.878 40.762 30.4503 43.788 33.595C46.814 36.7397 48.327 41.1303 48.327 46.767C48.327 51.8103 47.0217 55.845 44.411 58.871C41.8003 61.897 38.003 63.6473 33.019 64.122L48.861 91H40.495L25.365 64.478H15.486V91ZM30.438 58.159C33.5827 58.159 36.0153 57.3877 37.736 55.845C39.516 54.243 40.406 51.9883 40.406 49.081V44.453C40.406 41.5457 39.516 39.3207 37.736 37.778C36.0153 36.176 33.5827 35.375 30.438 35.375H15.486V58.159H30.438ZM94.3942 91L89.1432 73.289H67.3382L62.0872 91H54.3442L73.3902 28.878H83.2692L102.315 91H94.3942ZM78.6412 36.799H77.8402L69.1182 66.792H87.3632L78.6412 36.799Z" fill="white"/>
<line x1="105" y1="98.5" x2="143" y2="98.5" stroke="#7CFF6B" stroke-width="7"/>
</svg>
